<?xml version="1.0" encoding="utf-8"?>
<svg viewBox="0 0 500 500" style="shape-rendering: geometricprecision;" xmlns="http://www.w3.org/2000/svg">
  <defs/>
  <g transform="matrix(0.080883, 0, 0, 0.078004, -217.799657, -31.632989)" style="">
    <path style="opacity:1" d="M 5817.36 771.228 C 6106.69 760.877 6371.36 835.71 6611.36 995.728 C 6859.93 1168.402 7030.77 1399.235 7123.86 1688.228 C 7199.14 1939.768 7200.48 2191.768 7127.86 2444.228 C 7044.71 2715.368 6891.37 2937.368 6667.86 3110.228 C 6652.33 3070.638 6637 3030.978 6621.86 2991.228 C 6608.18 2960.188 6592.68 2930.188 6575.36 2901.228 C 6778.52 2727.248 6902.68 2507.588 6947.86 2242.228 C 6988.57 1961.118 6930.9 1702.448 6774.86 1466.228 C 6620 1242.953 6410.84 1095.786 6147.36 1024.728 C 5898.72 963.726 5657.72 985.726 5424.36 1090.728 C 5401.24 1102.124 5378.24 1113.79 5355.36 1125.728 C 5303.46 1140.538 5260.63 1127.038 5226.86 1085.228 C 5204.42 1051.475 5200.09 1015.475 5213.86 977.228 C 5220.85 960.4 5231.35 946.234 5245.36 934.728 C 5423.44 836.373 5614.11 781.873 5817.36 771.228 Z" fill="#3a3a3a"/>
  </g>
  <g transform="matrix(0.082734, 0, 0, 0.080411, 75.338457, 18.850455)" style="">
    <path style="opacity:1" d="M 1279.5,471.5 C 1331.01,469.992 1368.51,491.992 1392,537.5C 1407.85,577.744 1403.19,615.41 1378,650.5C 1181.95,838.619 1069.62,1068.62 1041,1340.5C 1020.01,1607.23 1085.67,1849.9 1238,2068.5C 1384.62,2269.68 1577.45,2406.52 1816.5,2479C 1982.22,2526.46 2149.89,2534.46 2319.5,2503C 2338.19,2499.09 2356.86,2495.43 2375.5,2492C 2400.62,2562.08 2431.29,2629.58 2467.5,2694.5C 2221.17,2761.78 1975.83,2758.28 1731.5,2684C 1457.1,2595.48 1234.6,2435.64 1064,2204.5C 892.805,1964.2 810.471,1695.87 817,1399.5C 829.188,1090.98 934.855,819.983 1134,586.5C 1162.07,554.094 1191.9,523.26 1223.5,494C 1240.32,481.75 1258.99,474.25 1279.5,471.5 Z" fill="#3a3a3a"/>
  </g>
  <g transform="matrix(0.041031, 0, 0, 0.078716, 868.559955, 144.244891)" style="">
    <path style="opacity: 1; fill: rgb(253, 253, 253);" d="M -14986.983 -1067.076 C -14457.365 -1074.484 -14005.687 -984.484 -13631.908 -797.076 C -13304.275 -623.231 -13136.341 -415.566 -13128.086 -174.076 C -13134.579 81.784 -13317.38 298.954 -13676.45 477.424 C -13702.522 489.254 -13728.574 501.094 -13754.647 512.924 C -13859.015 464.244 -13976.13 425.074 -14106.035 395.424 C -13809.167 285.984 -13624.068 139.814 -13550.742 -43.076 C -13484.345 -241.546 -13566.817 -422.206 -13798.199 -585.076 C -14039.302 -743.93 -14357.69 -836.097 -14753.383 -861.576 C -15018.222 -875.281 -15270.291 -852.948 -15509.612 -794.576 C -15600.993 -784.516 -15674.576 -798.349 -15730.343 -836.076 C -15777.617 -875.838 -15776.311 -915.171 -15726.384 -954.076 C -15711.458 -963.28 -15694.631 -971.447 -15675.903 -978.576 C -15457.943 -1031.267 -15228.302 -1060.767 -14986.983 -1067.076 Z"/>
  </g>
  <g transform="matrix(0.102282, 0, 0, 0.102538, 26.166701, -34.495568)" style="">
    <path style="opacity: 1; fill: rgb(255, 255, 255);" d="M 3277.5,2722.5 C 3204.35,2767.38 3125.02,2794.88 3039.5,2805C 2906.98,2815.99 2805.15,2765.82 2734,2654.5C 2716.64,2626.11 2701.64,2596.44 2689,2565.5C 2675.26,2525.96 2660.93,2486.63 2646,2447.5C 2608.7,2356.26 2555.53,2275.76 2486.5,2206C 2379.64,2104.17 2251.97,2050 2103.5,2043.5C 2110.53,2040.99 2117.87,2039.15 2125.5,2038C 2233.76,2019.28 2339.76,2027.95 2443.5,2064C 2581.26,2116.1 2682.43,2208.27 2747,2340.5C 2754.55,2356.27 2761.55,2372.27 2768,2388.5C 2785.59,2443.95 2808.59,2496.95 2837,2547.5C 2864.12,2594.98 2898.96,2636.14 2941.5,2671C 3026.54,2734.68 3121.54,2756.35 3226.5,2736C 3243.74,2732.27 3260.74,2727.77 3277.5,2722.5 Z"/>
  </g>
  <g transform="matrix(0.103779, 0, 0, 0.101431, 23.887404, -31.176602)" style="">
    <path style="opacity:1" d="M 2103.5,2043.5 C 2251.97,2050 2379.64,2104.17 2486.5,2206C 2555.53,2275.76 2608.7,2356.26 2646,2447.5C 2660.93,2486.63 2675.26,2525.96 2689,2565.5C 2701.64,2596.44 2716.64,2626.11 2734,2654.5C 2805.15,2765.82 2906.98,2815.99 3039.5,2805C 3125.02,2794.88 3204.35,2767.38 3277.5,2722.5C 3278.39,2721.22 3279.39,2721.22 3280.5,2722.5C 3268.47,2752.23 3251.64,2778.9 3230,2802.5C 3169.46,2868.33 3095.29,2910.49 3007.5,2929C 2924.35,2943.57 2846.35,2929.57 2773.5,2887C 2723.33,2856.52 2678.83,2819.02 2640,2774.5C 2564.82,2688.21 2505.82,2591.55 2463,2484.5C 2447.1,2442.03 2431.76,2399.36 2417,2356.5C 2400.51,2308.18 2378.17,2262.85 2350,2220.5C 2319.63,2179.12 2283.13,2144.29 2240.5,2116C 2196.77,2088.13 2151.1,2063.97 2103.5,2043.5 Z" fill="#3a3a3a"/>
  </g>
  <g transform="matrix(0.137001, 0, 0, 0.109376, -29.299698, -72.059877)" style="">
    <path style="opacity: 1; fill: rgb(85, 89, 91);" d="M 1983.5,3235.5 C 2090.17,3235.33 2196.83,3235.5 2303.5,3236C 2394.24,3237.67 2484.91,3241 2575.5,3246C 2615.73,3248.25 2655.73,3252.58 2695.5,3259C 2699.49,3260.33 2703.49,3261.66 2707.5,3263C 2712.58,3264.08 2713.58,3266.58 2710.5,3270.5C 2705.95,3272.31 2701.28,3273.81 2696.5,3275C 2679.26,3278.25 2661.93,3280.92 2644.5,3283C 2523.04,3292.85 2401.37,3298.19 2279.5,3299C 2114.11,3301.08 1948.78,3299.08 1783.5,3293C 1726,3290.82 1668.66,3286.49 1611.5,3280C 1597.36,3278.48 1583.69,3275.15 1570.5,3270C 1569.45,3268.61 1569.28,3267.11 1570,3265.5C 1573.15,3264 1576.32,3262.5 1579.5,3261C 1597.32,3256.92 1615.32,3253.92 1633.5,3252C 1750.12,3242.26 1866.79,3236.76 1983.5,3235.5 Z"/>
  </g>
  <g transform="matrix(0.111362, 0, 0, 0.139405, 27.11279, -141.521106)" style="">
    <path style="opacity: 1; fill: rgb(255, 255, 255);" d="M 345.5,3487.5 C 455.203,3482.98 545.703,3521.98 617,3604.5C 688.804,3695.89 704.47,3796.22 664,3905.5C 619.16,4005.66 543.326,4068.82 436.5,4095C 343.94,4113.42 259.607,4095.09 183.5,4040C 182.5,4039.83 181.5,4039.67 180.5,4039.5C 123.082,4056.81 65.749,4073.98 8.5,4091C 42.8333,4050 77.1667,4009 111.5,3968C 52.5915,3881.91 40.0915,3789.41 74,3690.5C 110.071,3602.76 172.238,3541.6 260.5,3507C 288.165,3496.97 316.499,3490.47 345.5,3487.5 Z"/>
  </g>
  <g transform="matrix(0.101081, 0, 0, 0.138557, 41.931134, -144.330447)" style="">
    <path style="opacity: 1; fill: rgb(254, 254, 254);" d="M 1227.5,3487.5 C 1269.5,3487.5 1311.5,3487.5 1353.5,3487.5C 1353.33,3603.83 1353.5,3720.17 1354,3836.5C 1409.02,3772.98 1463.85,3709.31 1518.5,3645.5C 1567.16,3644.33 1615.83,3644.17 1664.5,3645C 1606.45,3710.72 1548.78,3776.72 1491.5,3843C 1548.74,3925.48 1605.74,4008.14 1662.5,4091C 1614.17,4091.67 1565.83,4091.67 1517.5,4091C 1480.67,4035.5 1443.83,3980 1407,3924.5C 1389.33,3943.5 1371.67,3962.5 1354,3981.5C 1353.5,4018.17 1353.33,4054.83 1353.5,4091.5C 1311.5,4091.5 1269.5,4091.5 1227.5,4091.5C 1227.5,3890.17 1227.5,3688.83 1227.5,3487.5 Z"/>
  </g>
  <g transform="matrix(0.102683, 0, 0, 0.138557, 38.070832, -144.330447)" style="">
    <path style="opacity:1" d="M 2023.5,3487.5 C 2146.7,3483.52 2243.53,3531.52 2314,3631.5C 2366.37,3714.47 2376.7,3802.47 2345,3895.5C 2335.23,3921.21 2322.73,3945.37 2307.5,3968C 2341.11,4009.28 2375.11,4050.28 2409.5,4091C 2352.36,4074.07 2295.19,4056.9 2238,4039.5C 2236.37,4039.63 2234.87,4040.13 2233.5,4041C 2157.44,4095 2073.44,4113 1981.5,4095C 1887.27,4071.84 1816.1,4018.34 1768,3934.5C 1727.93,3857.85 1721.6,3778.52 1749,3696.5C 1777.79,3622.04 1826.95,3565.21 1896.5,3526C 1936.42,3504.74 1978.76,3491.91 2023.5,3487.5 Z" fill="#3a3a3a"/>
  </g>
  <g transform="matrix(0.101081, 0, 0, 0.138557, 41.931134, -144.330447)" style="">
    <path style="opacity:1" fill="#3a3a3a" d="M 3653.5,3522.5 C 3653.5,3563.17 3653.5,3603.83 3653.5,3644.5C 3685.83,3644.5 3718.17,3644.5 3750.5,3644.5C 3750.5,3678.5 3750.5,3712.5 3750.5,3746.5C 3718.17,3746.5 3685.83,3746.5 3653.5,3746.5C 3653.33,3814.83 3653.5,3883.17 3654,3951.5C 3660.01,3986.84 3680.51,4000.68 3715.5,3993C 3724.35,3991.16 3732.19,3987.32 3739,3981.5C 3749.35,4008.22 3759.52,4035.06 3769.5,4062C 3756.03,4074.92 3740.37,4084.58 3722.5,4091C 3685.9,4104.5 3649.24,4104.83 3612.5,4092C 3563.1,4069.1 3536.6,4030.27 3533,3975.5C 3532.5,3899.17 3532.33,3822.83 3532.5,3746.5C 3512.17,3746.5 3491.83,3746.5 3471.5,3746.5C 3471.5,3712.5 3471.5,3678.5 3471.5,3644.5C 3491.83,3644.5 3512.17,3644.5 3532.5,3644.5C 3533.5,3604 3533.83,3563.34 3533.5,3522.5C 3573.5,3522.5 3613.5,3522.5 3653.5,3522.5 Z"/>
  </g>
  <g transform="matrix(0.105385, 0, 0, 0.138557, 32.322545, -144.330447)" style="">
    <path style="opacity: 1; fill: rgb(251, 255, 0);" d="M 2027.5,3603.5 C 2108.05,3600.35 2168.55,3633.35 2209,3702.5C 2239.96,3762.98 2240.3,3823.65 2210,3884.5C 2194.37,3905.87 2177.21,3926.04 2158.5,3945C 2112.24,3982.92 2059.91,3994.59 2001.5,3980C 1951.76,3964.26 1913.93,3933.76 1888,3888.5C 1850.78,3814.99 1855.78,3744.66 1903,3677.5C 1934.94,3636.72 1976.44,3612.05 2027.5,3603.5 Z"/>
  </g>
  <g transform="matrix(0.101081, 0, 0, 0.138557, 41.931134, -144.330447)" style="">
    <path style="opacity:1" fill="#3a3a3a" d="M 3153.5,3634.5 C 3240.99,3630.13 3312.82,3661.13 3369,3727.5C 3427.76,3806.76 3434.43,3890.43 3389,3978.5C 3347.28,4047.14 3286.45,4087.64 3206.5,4100C 3108.22,4108.27 3029.72,4073.1 2971,3994.5C 2928.25,3928.86 2920.25,3859.19 2947,3785.5C 2978.21,3715.96 3030.05,3669.12 3102.5,3645C 3119.41,3640.39 3136.41,3636.89 3153.5,3634.5 Z"/>
  </g>
  <g transform="matrix(0.101081, 0, 0, 0.138557, 41.931134, -144.330447)" style="">
    <path style="opacity:1" fill="#3a3a3a" d="M 4266.5,3818.5 C 4266.5,3848.5 4266.5,3878.5 4266.5,3908.5C 4161.83,3908.17 4057.16,3908.5 3952.5,3909.5C 3952.62,3910.11 3952.96,3910.44 3953.5,3910.5C 3972.23,3965.21 4010.57,3991.71 4068.5,3990C 4104.04,3986.72 4135.21,3973.56 4162,3950.5C 4188.83,3978 4215.67,4005.5 4242.5,4033C 4214.59,4058.8 4182.26,4077.13 4145.5,4088C 4083.05,4107.84 4021.39,4105.84 3960.5,4082C 3878.47,4043.21 3832.97,3978.38 3824,3887.5C 3818.62,3820.33 3837.28,3761 3880,3709.5C 3935.4,3651.58 4003.23,3627.08 4083.5,3636C 4134.83,3642.09 4177.66,3664.25 4212,3702.5C 4239.6,3736.7 4257.76,3775.36 4266.5,3818.5 Z"/>
  </g>
  <g transform="matrix(0.111953, 0, 0, 0.138557, 30.336035, -145.330447)" style="">
    <path style="opacity: 1; fill: rgb(249, 249, 249);" d="M 953.5,3634.5 C 1025.31,3629.49 1087.64,3650.99 1140.5,3699C 1144.39,3702.39 1147.73,3706.22 1150.5,3710.5C 1123.15,3734.51 1095.49,3758.18 1067.5,3781.5C 1029.75,3744.15 985.42,3732.98 934.5,3748C 889.662,3767.85 863.162,3802.02 855,3850.5C 850.502,3900.98 868.002,3941.81 907.5,3973C 948.29,4000.47 990.623,4002.8 1034.5,3980C 1047.69,3972.65 1059.52,3963.48 1070,3952.5C 1098.3,3975.63 1126.13,3999.3 1153.5,4023.5C 1098.3,4082.08 1030.3,4107.91 949.5,4101C 875.774,4091.24 816.941,4056.74 773,3997.5C 726.607,3928.67 718.94,3855.67 750,3778.5C 785.715,3705.88 842.881,3659.71 921.5,3640C 932.252,3637.83 942.919,3636 953.5,3634.5 Z"/>
  </g>
  <g transform="matrix(0.101081, 0, 0, 0.138557, 41.931134, -144.330447)" style="">
    <path style="opacity:1" d="M 2720.5,3914.5 C 2721.27,3913.74 2721.77,3912.74 2722,3911.5C 2722.5,3822.5 2722.67,3733.5 2722.5,3644.5C 2764.5,3644.5 2806.5,3644.5 2848.5,3644.5C 2848.5,3793.5 2848.5,3942.5 2848.5,4091.5C 2806.17,4091.5 2763.83,4091.5 2721.5,4091.5C 2721.67,4073.16 2721.5,4054.83 2721,4036.5C 2695.74,4070.9 2661.91,4091.73 2619.5,4099C 2558.25,4109.58 2506.08,4092.75 2463,4048.5C 2438.91,4019.62 2425.24,3986.29 2422,3948.5C 2421.5,3847.17 2421.33,3745.83 2421.5,3644.5C 2461.83,3644.5 2502.17,3644.5 2542.5,3644.5C 2542.33,3732.5 2542.5,3820.5 2543,3908.5C 2544.14,3934.95 2553.97,3957.45 2572.5,3976C 2600.62,3997.08 2631.29,4001.42 2664.5,3989C 2697.8,3975.2 2716.46,3950.36 2720.5,3914.5 Z" fill="#3a3a3a"/>
  </g>
  <g transform="matrix(0.101081, 0, 0, 0.138557, 41.931134, -144.330447)" style="">
    <path style="opacity: 1; fill: rgb(251, 255, 0);" d="M 3162.5,3740.5 C 3215.95,3738.64 3256.12,3760.64 3283,3806.5C 3304.28,3849.63 3303.28,3892.29 3280,3934.5C 3247.15,3984.67 3201.32,4003.5 3142.5,3991C 3091.61,3972.73 3061.78,3936.9 3053,3883.5C 3048.69,3829.62 3068.86,3787.79 3113.5,3758C 3128.9,3749.26 3145.23,3743.42 3162.5,3740.5 Z"/>
  </g>
  <g transform="matrix(0.101081, 0, 0, 0.138557, 41.931134, -144.330447)" style="">
    <path style="opacity: 1; fill: rgb(251, 255, 0);" d="M 4153.5,3816.5 C 4087.5,3817.83 4021.5,3817.83 3955.5,3816.5C 3970.9,3778.28 3998.9,3755.11 4039.5,3747C 4071.41,3742.14 4100.08,3749.48 4125.5,3769C 4139.07,3782.31 4148.41,3798.15 4153.5,3816.5 Z"/>
  </g>
  <g transform="matrix(0.079571, 0, 0, 0.08017, 81.432039, 17.495688)" style="">
    <path style="opacity: 1; fill: rgb(255, 255, 255);" d="M 1527.5,787.5 C 1579.51,783.243 1617.01,804.243 1640,850.5C 1648.86,874.467 1649.86,898.8 1643,923.5C 1640.88,929.736 1638.22,935.736 1635,941.5C 1510.92,1063.5 1441.25,1211.83 1426,1386.5C 1414,1601.92 1483.5,1785.75 1634.5,1938C 1764.5,2061.13 1919.5,2126.46 2099.5,2134C 2151.38,2157.93 2198.38,2188.93 2240.5,2227C 2267.26,2253.05 2289.26,2282.55 2306.5,2315.5C 2115.36,2355.73 1930.36,2336.57 1751.5,2258C 1540.73,2159.57 1388.23,2004.07 1294,1791.5C 1218.82,1610.69 1202.82,1424.69 1246,1233.5C 1286.43,1067.41 1366.6,924.242 1486.5,804C 1499.36,796.22 1513.03,790.72 1527.5,787.5 Z"/>
  </g>
  <g transform="matrix(0.105385, 0, 0, 0.138557, -146.942386, -137.928119)" style="">
    <path style="opacity: 1; fill: rgb(251, 255, 0);" d="M 2027.5,3603.5 C 2108.05,3600.35 2168.55,3633.35 2209,3702.5C 2239.96,3762.98 2240.3,3823.65 2210,3884.5C 2194.37,3905.87 2177.21,3926.04 2158.5,3945C 2112.24,3982.92 2059.91,3994.59 2001.5,3980C 1951.76,3964.26 1913.93,3933.76 1888,3888.5C 1850.78,3814.99 1855.78,3744.66 1903,3677.5C 1934.94,3636.72 1976.44,3612.05 2027.5,3603.5 Z"/>
  </g>
</svg>